<?xml version="1.0" standalone="no"?>
<!DOCTYPE svg PUBLIC "-//W3C//DTD SVG 20010904//EN"
 "http://www.w3.org/TR/2001/REC-SVG-20010904/DTD/svg10.dtd">
<svg version="1.0" xmlns="http://www.w3.org/2000/svg"
 width="260.000000pt" height="260.000000pt" viewBox="0 0 260.000000 260.000000"
 preserveAspectRatio="xMidYMid meet">
<metadata>
Created by potrace 1.14, written by Peter Selinger 2001-2017
</metadata>
<g transform="translate(0.000000,260.000000) scale(0.100000,-0.100000)"
fill="#000000" stroke="none">
<path d="M1070 2004 c-25 -13 -50 -22 -57 -20 -6 3 -17 -2 -23 -10 -7 -8 -18
-14 -24 -14 -6 0 -41 -28 -78 -63 -47 -45 -70 -75 -80 -105 -10 -32 -19 -43
-40 -48 -34 -7 -50 -35 -45 -77 l3 -32 9 33 c9 39 39 62 79 62 22 0 27 3 19
11 -23 23 20 105 58 113 15 3 33 16 40 28 20 40 61 67 102 68 20 0 37 5 37 11
0 5 5 7 12 3 7 -4 8 -3 4 4 -8 13 21 27 71 35 32 5 93 -16 93 -32 0 -5 3 -17
7 -27 5 -13 3 -15 -7 -9 -10 6 -12 4 -6 -11 28 -66 18 -101 -29 -110 -26 -5
-41 -1 -65 16 -16 12 -30 17 -30 11 0 -16 48 -44 88 -50 32 -6 36 -9 38 -44 3
-27 0 -37 -11 -37 -8 0 -15 5 -15 10 0 6 -8 10 -18 10 -10 0 -23 5 -30 12 -6
6 -14 9 -18 6 -9 -10 84 -60 103 -56 13 3 17 11 15 28 -9 68 -8 85 5 111 7 15
11 38 9 51 -27 123 -43 143 -118 145 -40 2 -64 -4 -98 -23z"/>
<path d="M1384 2019 c-3 -5 -10 -7 -15 -4 -5 4 -9 1 -9 -5 0 -6 -4 -9 -9 -6
-23 14 -44 -126 -28 -181 15 -49 15 -62 2 -87 -8 -14 -10 -26 -4 -26 5 0 12
-1 16 -2 3 -2 8 5 10 15 1 9 5 25 7 35 3 9 5 20 5 25 1 4 13 7 27 7 27 0 60
15 81 35 18 19 2 27 -18 9 -9 -8 -31 -18 -47 -20 -42 -7 -72 36 -61 85 4 19 6
42 4 52 -5 26 28 50 72 51 43 0 113 -25 113 -41 0 -6 18 -11 40 -11 31 0 47
-7 70 -29 17 -15 30 -36 30 -45 0 -9 3 -15 8 -15 19 3 33 -3 61 -27 17 -14 29
-30 26 -34 -3 -5 -1 -11 5 -15 18 -11 10 39 -9 63 -11 12 -23 22 -27 22 -4 0
-24 18 -44 39 -41 42 -88 71 -118 71 -10 0 -27 9 -37 20 -10 11 -21 17 -26 15
-4 -3 -10 -1 -14 4 -7 12 -103 12 -111 0z"/>
<path d="M1141 1957 c-13 -6 -30 -21 -38 -33 -12 -18 -11 -23 2 -34 12 -10 15
-10 15 4 0 10 4 14 10 11 6 -3 7 1 4 9 -4 11 3 19 21 26 14 5 23 14 20 20 -8
12 -5 12 -34 -3z"/>
<path d="M1425 1950 c-3 -5 0 -10 7 -10 7 0 25 -14 40 -32 l27 -33 1 25 c0 38
-58 77 -75 50z"/>
<path d="M1153 1908 c-1 -11 1 -18 4 -14 10 10 43 -14 43 -31 0 -13 3 -14 11
-6 16 16 5 40 -28 57 -27 13 -29 13 -30 -6z"/>
<path d="M1410 1913 c-18 -7 -30 -23 -30 -40 0 -7 13 -4 34 10 41 27 39 46 -4
30z"/>
<path d="M978 1860 c-17 -16 -36 -30 -43 -30 -15 0 -38 -26 -42 -49 -10 -49
-12 -121 -4 -121 15 0 20 13 22 61 3 67 49 136 49 74 0 -14 5 -25 10 -25 6 0
10 14 10 30 0 29 29 70 51 70 5 0 7 5 4 10 -10 16 -23 12 -57 -20z"/>
<path d="M1577 1870 c25 -10 45 -42 42 -68 -3 -31 1 -43 11 -37 6 3 10 17 10
30 0 29 26 24 35 -6 7 -22 25 -26 25 -5 0 17 -106 96 -128 95 -13 0 -12 -2 5
-9z"/>
<path d="M1519 1794 c-9 -11 -8 -14 8 -14 10 0 28 -7 40 -15 13 -9 24 -11 28
-6 5 10 -2 16 -42 38 -17 9 -24 8 -34 -3z"/>
<path d="M1024 1790 c-24 -9 -30 -23 -29 -65 0 -19 -7 -35 -20 -43 -15 -10
-16 -12 -3 -8 10 3 20 1 23 -4 15 -24 25 -6 25 44 0 50 2 55 27 63 19 7 22 11
12 15 -7 3 -23 2 -35 -2z"/>
<path d="M1403 1733 c-18 -9 -33 -20 -33 -25 0 -4 16 0 35 9 19 9 35 20 35 25
0 10 2 10 -37 -9z"/>
<path d="M1809 1736 c-2 -2 -31 -6 -64 -9 -55 -5 -100 -11 -165 -22 -14 -2
-37 -4 -52 -4 -16 -1 -28 -6 -28 -12 0 -13 39 -10 229 16 63 8 118 15 122 15
4 0 15 -24 25 -52 12 -34 19 -46 22 -34 2 10 -4 38 -13 62 -14 37 -21 44 -44
44 -15 0 -30 -2 -32 -4z"/>
<path d="M1307 1654 c-1 -1 -24 -5 -52 -9 -27 -3 -95 -13 -151 -20 -55 -8
-148 -14 -205 -14 -152 2 -238 -33 -290 -117 -26 -43 -51 -141 -38 -150 10 -6
15 5 24 60 8 46 43 105 81 135 38 30 124 53 198 52 35 0 68 -1 72 -2 7 -2 146
12 164 16 5 1 127 18 145 20 59 6 115 19 115 26 0 7 -55 10 -63 3z"/>
<path d="M1769 1636 c-2 -2 -31 -6 -64 -10 -173 -18 -175 -19 -155 -81 9 -28
16 -34 33 -31 86 18 97 18 97 -4 0 -29 -38 -168 -60 -217 -12 -28 -17 -55 -13
-78 l6 -35 157 0 158 0 -5 38 c-7 59 -5 58 -83 52 -39 -3 -74 -2 -76 2 -2 3 7
40 20 81 42 128 48 186 27 245 -13 37 -28 51 -42 38z"/>
<path d="M1469 1596 c-2 -3 -24 -7 -48 -10 -23 -2 -45 -7 -49 -10 -4 -5 3 -61
24 -171 2 -11 7 -36 10 -55 4 -19 8 -44 11 -55 2 -11 6 -36 9 -55 11 -70 9
-69 84 -67 80 2 78 -2 54 102 -8 39 -20 90 -24 115 -5 25 -12 59 -15 75 -3 17
-10 47 -16 68 -5 20 -7 41 -5 46 7 11 -25 26 -35 17z"/>
<path d="M1900 1566 c0 -8 5 -18 10 -21 6 -3 10 1 10 9 0 8 -4 18 -10 21 -5 3
-10 -1 -10 -9z"/>
<path d="M1218 1559 c-10 -6 -6 -112 6 -174 2 -11 7 -52 11 -92 6 -64 5 -73
-12 -82 -35 -18 -44 0 -57 119 -2 19 -7 60 -10 90 -15 130 -14 127 -49 123
-18 -2 -43 -4 -57 -6 -24 -2 -25 -5 -24 -67 1 -36 4 -103 7 -150 3 -47 6 -102
6 -122 2 -71 71 -87 222 -52 48 11 81 25 97 41 22 22 24 30 18 86 -3 34 -9 78
-13 97 -3 19 -7 45 -7 58 -1 12 -5 22 -9 22 -4 0 -7 6 -5 13 1 6 -1 33 -6 60
l-7 47 -51 -2 c-27 -2 -55 -6 -60 -9z"/>
<path d="M777 1506 c-48 -18 -74 -41 -98 -88 -16 -31 -20 -63 -22 -184 l-2
-146 28 -24 c39 -33 79 -31 217 12 8 3 27 -7 42 -21 33 -31 39 -31 66 -2 26
28 27 35 5 59 -13 15 -17 45 -20 164 -3 173 -14 204 -74 228 -48 19 -91 20
-142 2z m75 -98 c3 -11 3 -203 -1 -249 -1 -20 -35 -31 -50 -16 -16 16 -15 249
1 265 16 16 45 15 50 0z"/>
<path d="M1891 1448 c-7 -24 -13 -56 -14 -73 l-2 -30 51 3 52 2 10 -47 c14
-61 20 -97 27 -153 l6 -46 -100 4 c-70 3 -101 1 -101 -7 0 -7 29 -11 83 -12
45 -1 94 -3 110 -5 33 -3 33 0 11 139 -22 139 -26 148 -66 146 -73 -4 -70 -9
-43 94 4 16 3 27 -3 27 -5 0 -15 -19 -21 -42z"/>
<path d="M560 1206 c0 -20 4 -36 8 -36 12 0 13 58 1 65 -5 4 -9 -10 -9 -29z"/>
<path d="M1537 1104 c-1 -1 -38 -4 -82 -7 -44 -2 -141 -12 -215 -22 l-135 -17
-61 -60 -61 -59 -47 29 c-45 29 -48 30 -93 16 -53 -16 -140 -18 -176 -5 -32
13 -67 49 -79 84 -12 32 -32 37 -23 5 31 -102 123 -138 276 -106 56 11 57 11
100 -20 l43 -32 66 64 65 64 90 11 c159 20 180 23 196 26 9 2 81 6 160 10 162
8 223 28 71 24 -51 -2 -94 -4 -95 -5z"/>
<path d="M1720 1029 c0 -17 4 -28 10 -24 6 3 10 17 10 31 0 13 -4 24 -10 24
-5 0 -10 -14 -10 -31z"/>
<path d="M1885 1030 c-4 -11 -19 -32 -33 -45 -21 -20 -23 -25 -10 -25 18 0 68
58 68 78 0 20 -18 13 -25 -8z"/>
<path d="M1939 1028 c-1 -13 -2 -43 -3 -68 0 -25 -6 -54 -13 -65 -9 -16 -13
-17 -27 -6 -22 18 -30 8 -15 -17 10 -17 10 -23 0 -36 -12 -14 -16 -13 -42 8
-45 38 -69 24 -99 -56 -7 -22 -6 -28 4 -28 8 0 17 15 20 35 9 46 39 63 60 33
14 -19 14 -24 -2 -50 -16 -27 -25 -33 -47 -28 -5 1 -7 -2 -3 -6 5 -4 -3 -14
-16 -23 -13 -9 -36 -25 -51 -35 -22 -16 -28 -17 -36 -5 -5 8 -7 22 -5 31 2 10
1 20 -4 23 -11 7 -20 -20 -20 -56 0 -26 -3 -29 -31 -29 -35 0 -57 18 -53 43 3
24 -13 21 -21 -3 -3 -11 -11 -20 -16 -20 -6 0 -7 -4 -4 -10 3 -5 0 -10 -7 -11
-7 0 -20 -2 -29 -4 -9 -1 -28 7 -42 19 -27 23 -45 66 -28 66 6 0 11 5 11 10 0
6 -11 10 -25 10 -18 0 -28 7 -35 25 -12 33 -3 54 26 61 13 3 22 10 19 14 -3 5
-13 6 -24 3 -40 -10 -65 70 -41 133 11 27 11 27 33 8 12 -11 36 -21 52 -23 17
-1 37 -9 46 -17 8 -8 24 -14 35 -14 16 1 15 4 -8 21 -27 20 -27 21 -10 47 l17
27 -32 -23 c-32 -23 -77 -29 -88 -12 -3 5 -15 15 -26 20 -17 10 -22 6 -34 -24
-20 -48 -19 -95 3 -131 12 -19 16 -38 12 -50 -10 -28 8 -73 31 -80 11 -4 19
-15 19 -29 0 -30 53 -83 89 -88 16 -2 37 2 47 9 12 9 33 11 66 7 38 -5 53 -3
68 11 10 9 23 14 29 11 9 -6 34 13 148 111 22 20 46 39 52 42 5 4 24 34 41 66
23 46 30 73 30 118 0 31 -4 57 -10 57 -5 0 -11 -10 -11 -22z"/>
<path d="M1266 958 c3 -81 -10 -103 -62 -106 -46 -3 -59 -12 -19 -12 41 0 68
-26 53 -54 -6 -11 -9 -23 -7 -26 2 -3 -11 -6 -28 -8 -18 -2 -33 -7 -33 -13 0
-5 5 -9 10 -9 19 0 10 -37 -15 -58 -47 -41 -105 -31 -105 19 0 10 -5 19 -11
19 -6 0 -9 -6 -6 -14 10 -24 -16 -48 -48 -44 -27 3 -30 7 -33 40 -2 20 -9 39
-17 42 -9 3 -12 -1 -10 -16 3 -11 0 -28 -5 -37 -8 -13 -9 -14 -10 -1 0 11 -2
12 -8 3 -6 -9 -20 -2 -52 27 -24 22 -50 40 -57 40 -7 0 -13 5 -13 11 0 7 -7
17 -17 24 -19 14 -12 42 13 52 19 7 42 -14 46 -42 5 -27 18 -46 28 -40 4 2 0
25 -9 50 -20 57 -57 74 -95 44 -14 -11 -30 -17 -36 -14 -14 9 -13 42 2 47 7 3
2 7 -10 10 -12 4 -20 2 -16 -3 12 -20 -16 -8 -30 13 -9 12 -18 19 -21 16 -3
-3 4 -16 15 -31 11 -14 20 -31 20 -37 0 -14 98 -110 112 -110 5 0 6 -6 2 -12
-4 -7 -4 -10 1 -6 4 4 25 -8 47 -27 21 -19 42 -35 47 -35 6 0 22 -5 38 -12 15
-7 51 -14 78 -15 28 -1 71 -5 96 -9 39 -5 50 -2 71 18 14 12 29 34 33 48 4 14
17 35 28 48 14 15 22 38 23 61 0 21 8 55 17 74 12 24 15 49 12 77 -9 73 -23
78 -19 8z"/>
<path d="M1560 1010 c0 -5 3 -9 8 -9 39 6 66 -29 51 -68 -6 -18 -16 -23 -42
-23 -19 0 -40 -6 -46 -14 -10 -12 -6 -13 26 -9 28 3 43 0 58 -14 27 -26 57
-22 87 10 14 15 39 30 57 33 40 8 40 24 0 24 -22 0 -40 -9 -60 -31 -48 -51
-90 -44 -62 12 12 24 12 32 -1 57 -15 29 -34 42 -62 42 -8 0 -14 -4 -14 -10z"/>
<path d="M1124 982 c-21 -21 -17 -37 5 -18 10 9 22 16 27 15 20 -3 47 1 41 8
-13 12 -60 9 -73 -5z"/>
<path d="M892 891 c23 -29 47 -45 55 -37 5 5 -59 66 -70 66 -5 0 2 -13 15 -29z"/>
<path d="M922 789 c-13 -5 -21 -13 -17 -18 3 -6 13 -7 22 -4 9 4 14 2 10 -3
-3 -6 4 -11 16 -11 12 -1 27 -9 33 -18 9 -12 13 -13 16 -3 4 12 -11 31 -42 55
-10 7 -23 8 -38 2z"/>
<path d="M1650 792 c-24 -8 -61 -52 -53 -65 4 -7 10 -3 16 12 6 12 16 20 24
17 7 -3 13 -1 13 4 0 5 12 10 28 12 25 3 26 4 7 14 -11 6 -27 9 -35 6z"/>
</g>
</svg>
